<svg xmlns="http://www.w3.org/2000/svg" viewBox="0 0 64 64" fill="none">
  <path d="M12 8c0-2.2 1.8-4 4-4s4 1.8 4 4v48c0 2.2-1.8 4-4 4s-4-1.8-4-4V8Z" fill="#8A8F98"/>
  <path d="M20 10h32l-5.6 8L52 26H20V10Z" fill="#113B78" stroke="#fff" stroke-width="2" stroke-linejoin="round"/>
  <path d="M20 26h32l-5.6 8L52 42H20V26Z" fill="#C9253A" stroke="#fff" stroke-width="2" stroke-linejoin="round"/>
  <path d="M30 14.5 32 19l4.9.4-3.7 3.1 1.2 4.8-4.4-2.6-4.3 2.6 1.1-4.8-3.7-3.1 4.9-.4L30 14.5Z" fill="#fff"/>
</svg>
