<svg xmlns="http://www.w3.org/2000/svg" viewBox="0 0 64 64" fill="none">
  <path d="M12 18h40c6.6 0 12 5.4 12 12v10c0 6.6-5.4 12-12 12H24l-12 8 2.4-8H12C5.4 52 0 46.6 0 40V30c0-6.6 5.4-12 12-12Z" fill="#fff" stroke="#113B78" stroke-width="3" stroke-linejoin="round"/>
  <path d="M20 26c-5 2.3-7.5 6.5-7.5 12.7h8.3c1.2 0 2.2.9 2.2 2.1v5.7c0 1.2-1 2.2-2.2 2.2h-6.2c-3.2 0-5.8-2.6-5.8-5.8V39c0-9.1 4.1-15 11.2-17.8Zm22 0c-5 2.3-7.5 6.5-7.5 12.7h8.3c1.2 0 2.2.9 2.2 2.1v5.7c0 1.2-1 2.2-2.2 2.2h-6.2c-3.2 0-5.8-2.6-5.8-5.8V39c0-9.1 4.1-15 11.2-17.8Z" fill="#C9253A"/>
</svg>
